PathFileType	4	(X/Y/Z)	Patient4_TMGait_0pt7_02_right_47.trc.trc
DataRate	CameraRate	NumFrames	NumMarkers	Units	OrigDataRate	OrigDataStartFrame	OrigNumFrames
90.322580645161	90.322580645161	4	33	mm	90.322580645161	71	       141
Frame#	Time	Sacral			L.Shoulder			Chest			R.Shoulder			Neck			R.ASIS			L.ASIS			R.Thigh.Superior			R.Thigh.Lateral			R.Thigh.Inferior			R.Patella			L.Thigh.Superior			L.Thigh.Lateral			L.Thigh.Inferior			L.Patella			L.Shank.Superior			L.Shank.Lateral			L.Shank.Inferior			R.Shank.Superior			R.Shank.Lateral			R.Shank.Inferior			R.Heel			R.Midfoot.Superior			R.Midfoot.Lateral			R.Toe			L.Heel			L.Midfoot.Lateral			L.Midfoot.Superior			L.Toe			L.Elbow			L.Wrist			R.Elbow			R.Wrist			
		X1	Y1	Z1	X2	Y2	Z2	X3	Y3	Z3	X4	Y4	Z4	X5	Y5	Z5	X6	Y6	Z6	X7	Y7	Z7	X8	Y8	Z8	X9	Y9	Z9	X10	Y10	Z10	X11	Y11	Z11	X12	Y12	Z12	X13	Y13	Z13	X14	Y14	Z14	X15	Y15	Z15	X16	Y16	Z16	X17	Y17	Z17	X18	Y18	Z18	X19	Y19	Z19	X20	Y20	Z20	X21	Y21	Z21	X22	Y22	Z22	X23	Y23	Z23	X24	Y24	Z24	X25	Y25	Z25	X26	Y26	Z26	X27	Y27	Z27	X28	Y28	Z28	X29	Y29	Z29	X30	Y30	Z30	X31	Y31	Z31	X32	Y32	Z32	X33	Y33	Z33	

71	54.015000000000	741.859244419678	1004.000411849957	514.079321626898	917.691666713852	1414.139546411278	305.481073340530	1036.681326431089	1342.888459753294	454.502000974921	981.306483198516	1430.491440420500	632.108196254493	941.692641292268	1478.111301862147	457.547069607318	966.036739539782	930.571122094553	622.398780820867	944.204962891699	939.813240832294	345.869928236501	956.230319716480	716.597014409716	600.875769866879	845.200077575078	627.979880605541	660.315144171198	904.788423286723	558.722399830209	582.856290344148	882.567226953763	474.515913814701	586.616187997565	1020.650481071148	771.332586664153	389.339110540333	989.567280055764	642.142488908798	301.060785950448	1089.711660041726	587.768100829313	372.219384093722	1120.203963802310	522.582187978628	368.416129970731	1105.395102190857	448.816655754005	353.501996761303	1045.740108811566	318.934851107455	294.509330413821	1131.900528245792	220.212108010328	352.171028617279	841.422687439452	392.437237203365	592.625480222141	754.486739401510	300.882813365101	652.946482963670	782.216744837177	200.913981200062	589.374584277895	629.222515983833	44.434831488888	555.504297255840	799.653370098560	96.094045517379	597.573658335137	709.152023932842	37.219420047394	633.009755740923	917.718447469517	40.886806333293	631.253259438498	1050.800036671932	40.467388701124	381.086724506040	1130.254592927809	46.259932083672	306.503034709034	1198.429538396734	122.993865386788	333.352249829246	1333.885459264532	94.688846511370	316.715668239673	755.352895703200	1097.680578263876	227.117202382433	700.093504349331	844.902538795978	268.616376445115	1135.193074273890	1135.117343245975	746.568741128466	1336.501204303554	1226.386776065157	628.903542955393	
72	54.026071428571	744.088333975852	1001.956309653954	511.373443771852	917.990141583496	1412.751412713765	303.602239259927	1037.052486401512	1342.394792707996	452.917903393280	980.401542741150	1429.772706204335	630.186394491860	940.985361455367	1476.780839778129	455.733505518822	967.912562481187	928.919674592760	620.838061611451	947.554114941417	938.087820114795	344.517546782836	956.832623851542	714.589409081056	599.510534277881	844.882763423582	626.687077460572	658.866000035402	904.009828730997	556.892739957923	581.503505317234	880.959837791214	472.250035591273	585.184568783406	1023.151660041095	767.808991771218	388.311088688707	989.709526007743	638.879982445661	300.565910621057	1089.451693038192	583.784309214974	371.440918048105	1118.294535974737	518.129518709116	368.012466606409	1103.688931404206	444.668321981514	352.893815900275	1043.317055483379	314.738393279565	295.284712746270	1129.697643485865	216.278148288631	352.840605989034	838.605620211053	390.688410618141	591.429492692007	750.331508268687	300.464841317214	652.137045804552	776.262158141638	200.061090039023	588.805364941445	621.432808532423	44.682233526045	555.530925912509	791.984706697798	96.104145872419	597.453336119932	701.401798919955	37.317776225980	633.019792916537	909.963665652346	40.673867975618	631.329475957155	1047.557731204722	38.713709243775	383.516975848587	1126.022210003673	43.350725769581	307.775798667742	1195.849656536705	118.262787378290	334.166010654767	1330.499144748673	87.324818935834	315.613834780975	751.381949103317	1099.333694482018	226.169496962204	692.881102254924	847.386148289839	269.161396419319	1142.506224215914	1140.030192149057	743.329523586534	1336.409320089110	1241.983049702817	623.051713946368	
73	54.037142857143	746.216964446614	999.918827560262	508.572014408216	918.419357261056	1411.290936441619	301.546693013691	1037.513734396118	1341.872575709557	451.232326506721	979.532207796925	1429.054484546372	628.142282994374	940.393450686331	1475.439730664595	453.695237871017	969.816689263529	927.234916362010	619.149004817848	950.832320340884	936.446516972604	343.101959126150	957.865726581423	712.603642329757	597.902126668528	845.261322483193	625.208670811862	657.209412983007	904.065996385434	554.962426264175	579.922615889642	880.272534110693	469.685715577703	583.563504269885	1025.965242297786	764.786998728020	387.177347392541	990.268267953654	636.102447622948	300.130251649399	1089.837212117365	580.467593090799	370.601583578615	1116.991740422621	514.131088621420	367.678024867215	1102.404911204117	440.820286671589	352.444409668098	1040.967123353270	311.149349203244	295.828686683208	1126.784921912576	212.522072070118	353.557876984018	836.481495502965	388.727631624981	590.060676393250	746.726574836857	300.036249290048	651.208464415902	770.603933586932	199.190521852372	588.157418826435	613.662847462621	45.210804398109	555.589543307109	784.428913778620	96.153907052905	597.323291843019	693.690728390548	37.560277110201	633.043467200917	902.260573794066	40.409226446391	631.411729931618	1042.462494494278	37.627707863003	385.634882442173	1120.059350602746	40.852542671158	308.833163044191	1191.907369985461	113.514357608309	335.037204141223	1325.625640080085	79.234439123117	314.680244059807	748.168118349830	1100.537957239726	225.231727505611	686.565144184488	849.404704890368	269.305223488099	1149.042094816914	1144.684120815254	740.126723493473	1335.515711774692	1256.234023937926	617.558226368643	
74	54.048214285714	748.184450459359	997.975435373119	505.733992601787	918.997078639695	1409.829114149909	299.336454890847	1038.073480556114	1341.349317525519	449.453803026476	978.768932534070	1428.392332256411	625.989515003231	939.977675235062	1474.160510728183	451.446793729908	971.687217727017	925.608328591591	617.332003316487	953.943989642982	934.978239114094	341.596696229054	959.315145519888	710.722736483768	596.070233910635	846.352797001297	623.589702951238	655.353809138849	905.018104785719	552.987340567119	578.147116559695	880.601470725346	466.853668647051	581.824177536725	1029.003269496843	762.406977907041	385.881204502042	991.223056432740	633.926486557194	299.666776259079	1090.808129201243	577.911777293876	369.663604814965	1116.319001874356	510.774072873804	367.384431492011	1101.612991952669	437.443559520889	352.128474458338	1038.939872436854	308.288225354518	295.992400193388	1123.423358924926	209.115961820858	354.253438277088	835.100906123960	386.613614837354	588.566540540372	743.705905321987	299.686219105110	650.174035551559	765.298731085073	198.390058609583	587.456821269196	605.944457553818	46.175897315393	555.682985574567	777.049958096710	96.268267665699	597.201895629286	686.040884033962	38.032019878951	633.078908167372	894.619418900560	40.093745098390	631.494423291618	1036.016394308069	37.096504399069	387.298373126690	1112.927619386033	38.833005243877	309.609168889994	1186.930480159244	109.061425452038	335.903269625224	1319.690160676869	71.130131257042	313.990652929506	745.821280759523	1101.247235807084	224.270052368774	681.271058372240	850.913866225294	269.057874852405	1154.771449431899	1148.967220370490	737.003971679648	1333.939802540148	1269.067727442497	612.441504458051	
